<svg width="1175" height="208" viewBox="0 0 1175 208" fill="none" xmlns="http://www.w3.org/2000/svg">
<g clip-path="url(#clip0_2_6)">
<g clip-path="url(#clip1_2_6)">
<path d="M43.5537 1.93454C42.7677 1.60619 42.9615 0.455152 43.8132 0.408245C64.5145 -0.789699 85.362 0.740205 97.7031 3.41754C119.614 8.17684 139.343 16.6959 152.938 37.5084C158.776 46.4461 163.02 56.3003 164.362 66.425C164.449 67.0781 163.941 67.6591 163.276 67.6591H89.2259C88.6447 67.6591 88.1731 67.2152 88.1329 66.6451C86.5574 42.9713 73.6899 14.4769 43.5537 1.93454Z" fill="white"/>
<path d="M237.167 206.066C237.953 206.395 237.76 207.546 236.908 207.593C216.207 208.791 195.359 207.261 183.018 204.583C161.107 199.824 141.378 191.305 127.783 170.492C121.945 161.555 117.701 151.701 116.359 141.576C116.272 140.923 116.78 140.342 117.445 140.342H191.499C192.08 140.342 192.552 140.786 192.592 141.356C194.167 165.03 207.035 193.524 237.167 206.066Z" fill="white"/>
<path d="M83.3073 74.6193C83.7752 73.9699 83.099 73.1219 82.3532 73.4214C64.5215 80.6379 -13.1 117.294 2.7723 167.096C16.7291 210.47 90.8925 208.652 108 207.634C108.852 207.584 109.042 206.436 108.256 206.112C77.6449 193.4 64.8323 164.245 63.5748 140.517C62.6645 123.331 67.1572 97.0375 83.3073 74.6193V74.6193Z" fill="white"/>
<path d="M197.58 133.375C197.112 134.024 197.788 134.872 198.534 134.573C216.365 127.36 293.99 90.6999 278.118 40.8986C264.161 -2.47631 189.994 -0.657743 172.886 0.35618C172.038 0.406695 171.845 1.55051 172.631 1.87887C203.246 14.5908 216.058 43.7456 217.316 67.4771C218.226 84.6633 213.733 110.957 197.583 133.375H197.58Z" fill="white"/>
</g>
<path d="M382.848 38.1535H408.277V147.348H472.596V169.785H382.848V38.1535Z" fill="white"/>
<path d="M594.093 169.785L583.996 139.868H529.399L519.302 169.785H490.882L538.748 38.1535H574.647L622.513 169.785H594.093ZM536.317 118.927H577.078L561.933 73.8659C560.25 68.6306 559.128 61.7125 558.941 55.1683C558.941 54.0465 558.567 52.5507 556.698 52.5507C554.828 52.5507 554.454 54.0465 554.454 55.1683C554.267 61.7125 553.145 68.6306 551.462 73.8659L536.317 118.927Z" fill="white"/>
<path d="M723.195 38.1535H748.624V118.179C748.624 150.713 727.683 171.28 694.775 171.28C660.932 171.28 640.926 150.713 640.926 118.179V38.1535H666.355V119.675C666.355 140.055 679.069 148.843 694.775 148.843C709.172 148.843 723.195 139.868 723.195 119.675V38.1535Z" fill="white"/>
<path d="M779.003 169.785V38.1535H819.39L867.63 151.461C868.004 152.396 868.752 153.331 870.061 152.957C871.93 152.396 871.743 150.9 871.183 149.404C869.313 144.356 867.256 139.868 867.256 133.885V38.1535H892.685V169.785H852.298L804.058 56.4772C803.684 55.5423 802.936 54.6074 801.627 54.9814C799.758 55.5423 799.945 57.0381 800.506 58.5339C802.375 63.5823 804.432 68.0697 804.432 74.0529V169.785H779.003Z" fill="white"/>
<path d="M915.48 103.969C915.48 66.7609 939.039 36.6577 980.547 36.6577C1021.5 36.6577 1039.44 65.639 1041.13 87.5152H1015.89C1014.2 74.6138 1003.36 59.0948 980.921 59.0948C955.493 59.0948 940.909 79.1013 940.909 103.969C940.909 128.837 955.493 148.843 980.921 148.843C1003.36 148.843 1014.2 133.324 1015.89 120.423H1041.13C1039.44 142.299 1021.5 171.28 980.547 171.28C939.039 171.28 915.48 141.177 915.48 103.969Z" fill="white"/>
<path d="M1149.18 38.1535H1174.61V169.785H1149.18V115.188H1089.35V169.785H1063.92V38.1535H1089.35V92.7505H1149.18V38.1535Z" fill="white"/>
</g>
<defs>
<clipPath id="clip0_2_6">
<rect width="1173.97" height="207.938" fill="white" transform="translate(0.646179)"/>
</clipPath>
<clipPath id="clip1_2_6">
<rect width="282.202" height="207.938" fill="white" transform="translate(0.646179)"/>
</clipPath>
</defs>
</svg>
