<svg width="603" height="495" viewBox="0 0 603 495" fill="none" xmlns="http://www.w3.org/2000/svg">
<path d="M12.7801 79.2199L10.5071 71L8.21988 79.2199L0 81.5071L8.21988 83.7801L10.5071 92L12.7801 83.7801L21 81.5071L12.7801 79.2199Z" fill="white"/>
<path d="M594.78 368.22L592.507 360L590.22 368.22L582 370.507L590.22 372.78L592.507 381L594.78 372.78L603 370.507L594.78 368.22Z" fill="white"/>
<path d="M462.678 417.449C463.719 418.49 465.407 418.49 466.449 417.449C467.49 416.408 467.49 414.719 466.449 413.678C465.407 412.636 463.719 412.636 462.678 413.678C461.636 414.719 461.636 416.408 462.678 417.449ZM229.804 339.196L228.329 333.614L224.232 337.682L229.804 339.196ZM223.771 332.322C222.362 330.854 220.969 329.381 219.591 327.903L218.859 328.585C220.241 330.066 221.638 331.543 223.049 333.014L223.771 332.322ZM215.483 323.437C214.115 321.927 212.762 320.414 211.425 318.897L210.675 319.558C212.015 321.079 213.371 322.596 214.742 324.108L215.483 323.437ZM207.452 314.322C206.126 312.772 204.815 311.219 203.522 309.662L202.753 310.301C204.049 311.862 205.363 313.419 206.692 314.972L207.452 314.322ZM199.68 304.969C198.401 303.382 197.139 301.793 195.895 300.202L195.107 300.818C196.354 302.413 197.619 304.006 198.901 305.596L199.68 304.969ZM192.189 295.388C190.961 293.767 189.751 292.144 188.559 290.52L187.753 291.111C188.947 292.74 190.16 294.367 191.392 295.992L192.189 295.388ZM184.998 285.584C183.824 283.93 182.669 282.275 181.533 280.619L180.709 281.184C181.847 282.845 183.005 284.504 184.182 286.163L184.998 285.584ZM178.126 275.561C177.003 273.865 175.901 272.168 174.819 270.472L173.976 271.01C175.061 272.711 176.166 274.412 177.292 276.113L178.126 275.561ZM171.596 265.322C170.529 263.582 169.484 261.844 168.46 260.108L167.599 260.615C168.625 262.357 169.674 264.1 170.744 265.845L171.596 265.322ZM165.433 254.863C164.427 253.083 163.445 251.305 162.486 249.53L161.607 250.005C162.568 251.786 163.554 253.569 164.563 255.355L165.433 254.863ZM159.652 244.157C158.721 242.349 157.815 240.545 156.934 238.746L156.036 239.186C156.92 240.991 157.829 242.801 158.763 244.615L159.652 244.157ZM154.313 233.243C153.455 231.391 152.625 229.546 151.822 227.706L150.905 228.106C151.711 229.953 152.545 231.805 153.405 233.663L154.313 233.243ZM149.465 222.132C148.689 220.235 147.942 218.345 147.226 216.464L146.291 216.819C147.011 218.709 147.76 220.606 148.539 222.511L149.465 222.132ZM145.138 210.76C144.462 208.837 143.819 206.923 143.209 205.021L142.257 205.327C142.87 207.238 143.516 209.16 144.195 211.091L145.138 210.76ZM141.437 199.211C140.868 197.241 140.335 195.285 139.839 193.343L138.87 193.59C139.369 195.543 139.904 197.509 140.476 199.488L141.437 199.211ZM138.435 187.441C137.995 185.446 137.597 183.467 137.238 181.506L136.255 181.686C136.615 183.659 137.016 185.649 137.458 187.656L138.435 187.441ZM136.265 175.53C135.975 173.497 135.73 171.486 135.532 169.496L134.537 169.596C134.737 171.599 134.983 173.625 135.275 175.671L136.265 175.53ZM135.069 163.446C134.961 161.4 134.904 159.38 134.9 157.388L133.9 157.39C133.904 159.399 133.961 161.436 134.07 163.499L135.069 163.446ZM135.055 151.336C135.165 149.292 135.335 147.282 135.564 145.307L134.571 145.192C134.339 147.187 134.168 149.218 134.056 151.282L135.055 151.336ZM136.464 139.328C136.837 137.319 137.278 135.353 137.788 133.431L136.821 133.175C136.305 135.122 135.858 137.112 135.48 139.145L136.464 139.328ZM139.571 127.66C140.253 125.744 141.01 123.879 141.843 122.067L140.935 121.649C140.088 123.488 139.32 125.381 138.629 127.325L139.571 127.66ZM144.623 116.714C145.639 114.971 146.737 113.287 147.917 111.665L147.108 111.077C145.908 112.726 144.792 114.439 143.759 116.211L144.623 116.714ZM151.709 106.982C152.382 106.235 153.075 105.504 153.79 104.79L153.083 104.083C152.356 104.81 151.65 105.553 150.966 106.313L151.709 106.982ZM153.79 104.79C154.504 104.076 155.235 103.382 155.982 102.71L155.313 101.966C154.553 102.651 153.809 103.356 153.083 104.083L153.79 104.79ZM160.665 98.9168C162.287 97.737 163.971 96.6396 165.714 95.6237L165.21 94.7597C163.438 95.7923 161.726 96.9081 160.076 98.1082L160.665 98.9168ZM171.067 92.8436C172.878 92.01 174.743 91.2529 176.66 90.5715L176.325 89.6293C174.381 90.3204 172.488 91.0887 170.649 91.9352L171.067 92.8436ZM182.43 88.788C184.352 88.2786 186.319 87.8374 188.327 87.4638L188.144 86.4807C186.112 86.8587 184.121 87.3053 182.174 87.8214L182.43 88.788ZM194.307 86.5647C196.281 86.3352 198.291 86.1656 200.335 86.0552L200.281 85.0566C198.218 85.1681 196.187 85.3395 194.191 85.5714L194.307 86.5647ZM206.388 85.9006C208.379 85.9046 210.399 85.9609 212.446 86.0692L212.499 85.0706C210.436 84.9615 208.399 84.9046 206.39 84.9006L206.388 85.9006ZM218.496 86.5324C220.485 86.7305 222.497 86.9748 224.53 87.2649L224.671 86.275C222.625 85.9829 220.599 85.7368 218.595 85.5373L218.496 86.5324ZM230.506 88.2385C232.467 88.5968 234.445 88.9957 236.44 89.4348L236.655 88.4582C234.649 88.0165 232.658 87.6153 230.685 87.2548L230.506 88.2385ZM242.342 90.8389C244.285 91.335 246.241 91.8678 248.21 92.4369L248.488 91.4762C246.509 90.9043 244.542 90.3688 242.59 89.87L242.342 90.8389ZM254.021 94.2091C255.923 94.8195 257.836 95.4626 259.759 96.1383L260.091 95.1948C258.159 94.5162 256.238 93.8702 254.326 93.2569L254.021 94.2091ZM265.463 98.2262C267.345 98.9424 269.235 99.6888 271.132 100.465L271.511 99.5396C269.606 98.7602 267.708 98.0108 265.819 97.2916L265.463 98.2262ZM276.706 102.822C278.545 103.625 280.391 104.455 282.243 105.313L282.663 104.406C280.805 103.545 278.952 102.711 277.106 101.906L276.706 102.822ZM287.746 107.935C289.545 108.815 291.349 109.721 293.156 110.652L293.614 109.763C291.801 108.829 289.991 107.92 288.186 107.037L287.746 107.935ZM298.53 113.487C300.305 114.445 302.082 115.428 303.863 116.433L304.355 115.563C302.569 114.554 300.785 113.568 299.005 112.607L298.53 113.487ZM309.107 119.46C310.844 120.484 312.582 121.529 314.321 122.597L314.844 121.744C313.1 120.674 311.357 119.625 309.615 118.599L309.107 119.46ZM319.472 125.819C321.168 126.901 322.864 128.003 324.561 129.126L325.113 128.292C323.412 127.166 321.71 126.061 320.01 124.976L319.472 125.819ZM329.619 132.533C331.274 133.669 332.93 134.824 334.584 135.998L335.163 135.182C333.504 134.005 331.844 132.847 330.184 131.709L329.619 132.533ZM339.519 139.559C341.144 140.751 342.767 141.961 344.388 143.189L344.992 142.392C343.367 141.161 341.74 139.948 340.111 138.753L339.519 139.559ZM349.202 146.895C350.793 148.139 352.382 149.401 353.968 150.68L354.596 149.901C353.006 148.619 351.413 147.354 349.818 146.107L349.202 146.895ZM358.662 154.522C360.218 155.816 361.772 157.126 363.322 158.452L363.972 157.693C362.419 156.363 360.861 155.05 359.301 153.753L358.662 154.522ZM367.897 162.425C369.414 163.762 370.927 165.115 372.436 166.483L373.108 165.742C371.595 164.371 370.078 163.015 368.558 161.675L367.897 162.425ZM376.903 170.591C378.38 171.969 379.853 173.363 381.322 174.771L382.014 174.049C380.542 172.638 379.066 171.241 377.585 169.86L376.903 170.591ZM385.676 179.007C386.4 179.72 387.121 180.437 387.842 181.158L388.549 180.45C387.827 179.728 387.103 179.01 386.378 178.295L385.676 179.007ZM387.842 181.158C388.563 181.878 389.28 182.6 389.993 183.323L390.705 182.621C389.99 181.896 389.271 181.173 388.549 180.45L387.842 181.158ZM394.228 187.678C395.637 189.146 397.03 190.619 398.409 192.097L399.14 191.415C397.758 189.934 396.362 188.457 394.95 186.986L394.228 187.678ZM402.516 196.563C403.885 198.072 405.237 199.586 406.574 201.103L407.324 200.442C405.984 198.921 404.629 197.404 403.257 195.892L402.516 196.563ZM410.547 205.678C411.874 207.228 413.184 208.781 414.477 210.338L415.247 209.699C413.95 208.138 412.637 206.581 411.307 205.027L410.547 205.678ZM418.32 215.031C419.599 216.618 420.861 218.207 422.105 219.798L422.893 219.182C421.645 217.587 420.38 215.994 419.098 214.404L418.32 215.031ZM425.81 224.612C427.039 226.233 428.249 227.856 429.44 229.48L430.247 228.889C429.052 227.26 427.839 225.633 426.608 224.008L425.81 224.612ZM433.002 234.415C434.176 236.07 435.331 237.725 436.466 239.381L437.291 238.815C436.152 237.155 434.994 235.495 433.817 233.837L433.002 234.415ZM439.874 244.439C440.996 246.135 442.099 247.832 443.18 249.528L444.023 248.99C442.939 247.289 441.833 245.588 440.708 243.887L439.874 244.439ZM446.403 254.678C447.47 256.418 448.516 258.156 449.539 259.892L450.401 259.385C449.374 257.643 448.326 255.9 447.255 254.155L446.403 254.678ZM452.566 265.137C453.572 266.917 454.554 268.695 455.513 270.47L456.393 269.995C455.431 268.214 454.446 266.431 453.437 264.645L452.566 265.137ZM458.348 275.843C459.278 277.651 460.184 279.454 461.065 281.254L461.963 280.814C461.079 279.009 460.171 277.199 459.237 275.385L458.348 275.843ZM463.687 286.757C464.544 288.608 465.375 290.454 466.178 292.294L467.094 291.894C466.288 290.047 465.455 288.195 464.594 286.337L463.687 286.757ZM468.534 297.867C469.311 299.765 470.057 301.655 470.773 303.536L471.708 303.181C470.989 301.291 470.239 299.394 469.46 297.489L468.534 297.867ZM472.861 309.24C473.537 311.163 474.18 313.076 474.79 314.979L475.743 314.673C475.129 312.762 474.483 310.84 473.805 308.909L472.861 309.24ZM476.563 320.789C477.132 322.759 477.665 324.715 478.161 326.657L479.13 326.41C478.631 324.457 478.095 322.491 477.523 320.512L476.563 320.789ZM479.565 332.559C480.004 334.554 480.403 336.533 480.761 338.494L481.745 338.314C481.384 336.341 480.983 334.351 480.541 332.344L479.565 332.559ZM481.735 344.47C482.025 346.503 482.269 348.514 482.467 350.503L483.462 350.404C483.263 348.401 483.017 346.375 482.725 344.328L481.735 344.47ZM482.93 356.554C483.039 358.6 483.095 360.62 483.099 362.612L484.099 362.61C484.095 360.601 484.038 358.564 483.929 356.501L482.93 356.554ZM482.944 368.664C482.834 370.708 482.664 372.718 482.435 374.693L483.428 374.808C483.66 372.813 483.832 370.782 483.943 368.718L482.944 368.664ZM481.536 380.672C481.162 382.681 480.721 384.647 480.212 386.569L481.178 386.825C481.694 384.878 482.141 382.887 482.519 380.855L481.536 380.672ZM478.428 392.34C477.747 394.256 476.99 396.121 476.156 397.932L477.064 398.35C477.911 396.511 478.679 394.619 479.37 392.675L478.428 392.34ZM473.376 403.286C472.36 405.029 471.263 406.713 470.083 408.335L470.892 408.923C472.092 407.273 473.207 405.561 474.24 403.789L473.376 403.286ZM466.29 413.017C465.617 413.765 464.924 414.495 464.21 415.21L464.917 415.917C465.644 415.19 466.349 414.447 467.033 413.687L466.29 413.017ZM460.792 419.335C462.875 421.417 466.252 421.417 468.334 419.335C470.417 417.252 470.417 413.875 468.334 411.792C466.252 409.709 462.875 409.709 460.792 411.792C458.709 413.875 458.709 417.252 460.792 419.335ZM229.804 339.196L226.854 328.032L218.661 336.169L229.804 339.196ZM224.132 331.976C222.725 330.509 221.333 329.038 219.956 327.562L218.494 328.926C219.877 330.409 221.275 331.887 222.688 333.36L224.132 331.976ZM215.853 323.101C214.487 321.593 213.136 320.082 211.8 318.566L210.3 319.889C211.641 321.411 212.999 322.93 214.372 324.444L215.853 323.101ZM207.832 313.997C206.507 312.449 205.198 310.897 203.906 309.343L202.368 310.621C203.666 312.183 204.981 313.742 206.313 315.298L207.832 313.997ZM200.069 304.655C198.791 303.07 197.531 301.483 196.288 299.894L194.713 301.126C195.962 302.723 197.228 304.318 198.512 305.91L200.069 304.655ZM192.587 295.086C191.361 293.467 190.152 291.846 188.962 290.224L187.349 291.407C188.546 293.038 189.76 294.667 190.993 296.294L192.587 295.086ZM185.405 285.295C184.233 283.643 183.08 281.99 181.946 280.336L180.296 281.467C181.436 283.13 182.596 284.792 183.774 286.453L185.405 285.295ZM178.543 275.285C177.422 273.591 176.321 271.897 175.241 270.203L173.554 271.279C174.641 272.982 175.748 274.685 176.875 276.389L178.543 275.285ZM172.023 265.06C170.957 263.323 169.913 261.588 168.891 259.854L167.168 260.869C168.196 262.613 169.246 264.359 170.318 266.106L172.023 265.06ZM165.868 254.617C164.864 252.84 163.883 251.064 162.926 249.292L161.167 250.243C162.13 252.026 163.117 253.812 164.127 255.601L165.868 254.617ZM160.096 243.928C159.167 242.123 158.263 240.322 157.384 238.526L155.587 239.406C156.472 241.214 157.383 243.027 158.318 244.843L160.096 243.928ZM154.766 233.033C153.91 231.185 153.081 229.342 152.28 227.506L150.447 228.306C151.254 230.156 152.089 232.012 152.952 233.873L154.766 233.033ZM149.928 221.943C149.153 220.049 148.408 218.163 147.693 216.286L145.824 216.997C146.545 218.89 147.296 220.792 148.077 222.7L149.928 221.943ZM145.61 210.594C144.936 208.675 144.294 206.766 143.685 204.868L141.781 205.479C142.395 207.395 143.043 209.321 143.723 211.257L145.61 210.594ZM141.917 199.072C141.349 197.107 140.818 195.156 140.323 193.219L138.385 193.714C138.885 195.672 139.422 197.643 139.996 199.627L141.917 199.072ZM138.923 187.333C138.485 185.344 138.087 183.371 137.73 181.416L135.763 181.776C136.124 183.755 136.527 185.751 136.97 187.763L138.923 187.333ZM136.76 175.459C136.471 173.433 136.227 171.429 136.03 169.447L134.04 169.645C134.24 171.656 134.487 173.689 134.78 175.742L136.76 175.459ZM135.568 163.42C135.46 161.381 135.404 159.37 135.4 157.387L133.4 157.391C133.404 159.409 133.461 161.454 133.571 163.525L135.568 163.42ZM135.554 151.363C135.664 149.329 135.833 147.329 136.061 145.365L134.075 145.134C133.841 147.14 133.669 149.181 133.557 151.255L135.554 151.363ZM136.955 139.419C137.327 137.422 137.765 135.468 138.271 133.559L136.338 133.046C135.818 135.006 135.369 137.009 134.989 139.053L136.955 139.419ZM140.042 127.827C140.719 125.925 141.47 124.074 142.298 122.277L140.481 121.44C139.628 123.293 138.854 125.2 138.158 127.157L140.042 127.827ZM145.055 116.966C146.063 115.237 147.151 113.567 148.321 111.959L146.704 110.783C145.493 112.446 144.368 114.173 143.327 115.959L145.055 116.966ZM152.081 107.317C152.748 106.576 153.435 105.852 154.143 105.144L152.729 103.729C151.996 104.462 151.285 105.212 150.595 105.979L152.081 107.317ZM154.143 105.144C154.851 104.435 155.576 103.748 156.317 103.081L154.978 101.595C154.212 102.285 153.462 102.996 152.729 103.729L154.143 105.144ZM160.959 99.3212C162.567 98.1515 164.237 97.0633 165.966 96.0557L164.959 94.3277C163.172 95.3687 161.446 96.4937 159.782 97.7038L160.959 99.3212ZM171.276 93.2978C173.073 92.4706 174.924 91.7192 176.827 91.0427L176.157 89.1582C174.2 89.8542 172.293 90.6281 170.44 91.481L171.276 93.2978ZM182.559 89.2713C184.468 88.7652 186.422 88.3268 188.419 87.9554L188.053 85.9891C186.009 86.3693 184.006 86.8187 182.046 87.3381L182.559 89.2713ZM194.365 87.0614C196.328 86.8331 198.328 86.6643 200.362 86.5544L200.255 84.5573C198.181 84.6694 196.14 84.8416 194.134 85.0748L194.365 87.0614ZM206.387 86.4006C208.37 86.4045 210.381 86.4607 212.419 86.5685L212.525 84.5713C210.454 84.4617 208.409 84.4046 206.391 84.4006L206.387 86.4006ZM218.447 87.0299C220.428 87.2273 222.433 87.4707 224.459 87.7599L224.742 85.78C222.688 85.4869 220.656 85.24 218.645 85.0398L218.447 87.0299ZM230.416 88.7304C232.371 89.0875 234.343 89.4852 236.333 89.9231L236.763 87.9699C234.751 87.527 232.754 87.1245 230.775 86.7629L230.416 88.7304ZM242.219 91.3234C244.156 91.8181 246.107 92.3495 248.072 92.9172L248.627 90.9958C246.643 90.4225 244.671 89.8856 242.714 89.3856L242.219 91.3234ZM253.868 94.6852C255.766 95.2942 257.675 95.9359 259.594 96.61L260.257 94.7231C258.321 94.043 256.395 93.3955 254.479 92.7809L253.868 94.6852ZM265.285 98.6935C267.163 99.4082 269.049 100.153 270.943 100.928L271.7 99.0768C269.791 98.2959 267.89 97.545 265.997 96.8243L265.285 98.6935ZM276.506 103.28C278.342 104.082 280.184 104.911 282.032 105.767L282.873 103.952C281.012 103.09 279.156 102.255 277.306 101.447L276.506 103.28ZM287.526 108.384C289.322 109.263 291.123 110.167 292.928 111.097L293.843 109.318C292.027 108.383 290.214 107.473 288.405 106.587L287.526 108.384ZM298.292 113.927C300.064 114.884 301.839 115.864 303.617 116.869L304.601 115.127C302.812 114.117 301.026 113.13 299.243 112.167L298.292 113.927ZM308.853 119.891C310.587 120.913 312.323 121.957 314.06 123.023L315.106 121.318C313.359 120.246 311.613 119.196 309.869 118.168L308.853 119.891ZM319.203 126.241C320.897 127.321 322.591 128.422 324.285 129.543L325.389 127.875C323.685 126.748 321.982 125.641 320.278 124.555L319.203 126.241ZM329.336 132.946C330.989 134.08 332.643 135.233 334.295 136.406L335.452 134.775C333.791 133.596 332.129 132.436 330.467 131.296L329.336 132.946ZM339.224 139.962C340.846 141.152 342.467 142.361 344.086 143.588L345.294 141.993C343.666 140.761 342.037 139.546 340.407 138.35L339.224 139.962ZM348.894 147.289C350.483 148.531 352.07 149.792 353.654 151.069L354.91 149.512C353.318 148.228 351.723 146.962 350.126 145.713L348.894 147.289ZM358.342 154.907C359.897 156.199 361.449 157.507 362.997 158.832L364.297 157.313C362.742 155.981 361.183 154.667 359.621 153.368L358.342 154.907ZM367.566 162.801C369.081 164.136 370.593 165.487 372.1 166.854L373.444 165.372C371.929 163.999 370.411 162.641 368.888 161.3L367.566 162.801ZM376.562 170.957C378.037 172.333 379.509 173.725 380.976 175.132L382.36 173.689C380.887 172.275 379.408 170.877 377.926 169.494L376.562 170.957ZM385.325 179.363C386.048 180.075 386.769 180.791 387.489 181.511L388.903 180.097C388.18 179.374 387.455 178.654 386.73 177.939L385.325 179.363ZM387.489 181.511C388.208 182.231 388.924 182.952 389.637 183.674L391.061 182.27C390.345 181.544 389.626 180.82 388.903 180.097L387.489 181.511ZM393.868 188.024C395.274 189.491 396.666 190.962 398.043 192.438L399.506 191.074C398.122 189.591 396.724 188.113 395.311 186.639L393.868 188.024ZM402.146 196.899C403.513 198.406 404.864 199.918 406.199 201.433L407.7 200.111C406.358 198.589 405.001 197.07 403.627 195.556L402.146 196.899ZM410.167 206.003C411.492 207.551 412.801 209.102 414.093 210.657L415.631 209.379C414.333 207.817 413.018 206.258 411.687 204.702L410.167 206.003ZM417.931 215.345C419.208 216.929 420.468 218.516 421.711 220.106L423.286 218.874C422.038 217.277 420.771 215.682 419.487 214.09L417.931 215.345ZM425.412 224.914C426.639 226.533 427.847 228.154 429.037 229.776L430.65 228.593C429.454 226.962 428.239 225.333 427.006 223.706L425.412 224.914ZM432.594 234.705C433.766 236.357 434.92 238.01 436.054 239.664L437.703 238.533C436.563 236.87 435.404 235.208 434.225 233.547L432.594 234.705ZM439.457 244.715C440.578 246.409 441.679 248.103 442.759 249.797L444.445 248.721C443.359 247.018 442.252 245.314 441.125 243.611L439.457 244.715ZM445.977 254.94C447.043 256.677 448.087 258.412 449.109 260.146L450.832 259.131C449.804 257.386 448.753 255.641 447.681 253.894L445.977 254.94ZM452.131 265.383C453.135 267.16 454.116 268.935 455.073 270.707L456.833 269.757C455.87 267.974 454.883 266.187 453.872 264.399L452.131 265.383ZM457.903 276.072C458.832 277.877 459.737 279.677 460.616 281.473L462.412 280.594C461.527 278.786 460.617 276.973 459.681 275.156L457.903 276.072ZM463.233 286.967C464.089 288.815 464.918 290.658 465.719 292.494L467.552 291.694C466.745 289.844 465.91 287.988 465.048 286.127L463.233 286.967ZM468.072 298.057C468.847 299.951 469.591 301.837 470.306 303.714L472.175 303.003C471.455 301.11 470.704 299.208 469.923 297.299L468.072 298.057ZM472.39 309.406C473.064 311.325 473.705 313.234 474.314 315.131L476.219 314.52C475.604 312.605 474.957 310.679 474.277 308.743L472.39 309.406ZM476.082 320.928C476.65 322.892 477.181 324.844 477.676 326.781L479.614 326.286C479.114 324.328 478.577 322.357 478.004 320.373L476.082 320.928ZM479.076 332.667C479.514 334.656 479.912 336.629 480.269 338.584L482.237 338.224C481.875 336.245 481.473 334.249 481.03 332.237L479.076 332.667ZM481.24 344.54C481.529 346.566 481.772 348.571 481.97 350.553L483.96 350.355C483.76 348.344 483.513 346.311 483.22 344.258L481.24 344.54ZM482.431 356.58C482.539 358.619 482.595 360.63 482.599 362.613L484.599 362.609C484.595 360.591 484.538 358.546 484.428 356.474L482.431 356.58ZM482.445 368.637C482.335 370.671 482.166 372.671 481.938 374.635L483.925 374.866C484.158 372.86 484.33 370.819 484.442 368.745L482.445 368.637ZM481.044 380.581C480.673 382.577 480.234 384.532 479.728 386.441L481.662 386.953C482.181 384.994 482.63 382.991 483.011 380.947L481.044 380.581ZM477.957 392.172C477.28 394.075 476.529 395.926 475.702 397.723L477.519 398.56C478.372 396.706 479.145 394.8 479.841 392.843L477.957 392.172ZM472.944 403.034C471.936 404.763 470.848 406.433 469.678 408.041L471.296 409.217C472.506 407.554 473.631 405.827 474.672 404.041L472.944 403.034ZM465.918 412.683C465.252 413.424 464.564 414.148 463.856 414.856L465.27 416.271C466.003 415.538 466.715 414.788 467.405 414.021L465.918 412.683Z" fill="white"/>
<path d="M552 257.333C553.473 257.333 554.667 258.527 554.667 260C554.667 261.473 553.473 262.667 552 262.667C550.527 262.667 549.333 261.473 549.333 260C549.333 258.527 550.527 257.333 552 257.333ZM309 148L304.008 150.901L303.992 145.127L309 148ZM299.981 148.576C297.975 148.61 295.975 148.655 293.982 148.711L293.954 147.711C295.951 147.655 297.954 147.61 299.964 147.576L299.981 148.576ZM287.978 148.914C285.974 148.993 283.976 149.083 281.986 149.185L281.935 148.186C283.929 148.084 285.93 147.994 287.938 147.914L287.978 148.914ZM275.987 149.526C273.985 149.651 271.991 149.788 270.005 149.936L269.93 148.939C271.92 148.791 273.918 148.654 275.924 148.528L275.987 149.526ZM264.014 150.417C262.015 150.59 260.025 150.774 258.043 150.969L257.945 149.974C259.931 149.778 261.925 149.594 263.928 149.421L264.014 150.417ZM252.066 151.594C250.071 151.815 248.086 152.047 246.11 152.291L245.988 151.298C247.967 151.054 249.957 150.822 251.956 150.6L252.066 151.594ZM240.152 153.063C238.162 153.334 236.182 153.617 234.213 153.91L234.065 152.921C236.038 152.627 238.023 152.344 240.017 152.072L240.152 153.063ZM228.281 154.834C226.295 155.156 224.322 155.491 222.361 155.836L222.187 154.851C224.153 154.505 226.131 154.17 228.121 153.847L228.281 154.834ZM216.463 156.916C214.484 157.292 212.518 157.681 210.565 158.08L210.365 157.101C212.322 156.7 214.292 156.311 216.276 155.934L216.463 156.916ZM204.711 159.322C202.739 159.755 200.782 160.2 198.84 160.657L198.611 159.683C200.558 159.225 202.52 158.779 204.496 158.345L204.711 159.322ZM193.034 162.068C191.073 162.56 189.128 163.065 187.2 163.581L186.941 162.615C188.874 162.098 190.824 161.592 192.79 161.098L193.034 162.068ZM181.428 165.177C179.489 165.731 177.568 166.296 175.666 166.873L175.376 165.916C177.283 165.337 179.209 164.77 181.153 164.216L181.428 165.177ZM169.935 168.667C168.024 169.284 166.133 169.913 164.264 170.554L163.939 169.608C165.815 168.965 167.711 168.334 169.628 167.716L169.935 168.667ZM158.583 172.562C156.692 173.252 154.824 173.953 152.979 174.667L152.618 173.735C154.469 173.018 156.343 172.314 158.241 171.623L158.583 172.562ZM147.408 176.891C145.537 177.661 143.693 178.444 141.875 179.24L141.474 178.324C143.298 177.525 145.15 176.739 147.028 175.967L147.408 176.891ZM136.428 181.701C134.594 182.555 132.79 183.423 131.017 184.305L130.572 183.409C132.353 182.524 134.164 181.652 136.005 180.794L136.428 181.701ZM125.673 187.049C123.891 187.995 122.144 188.954 120.432 189.927L119.938 189.058C121.658 188.08 123.414 187.116 125.204 186.166L125.673 187.049ZM115.273 192.964C113.539 194.021 111.846 195.093 110.193 196.179L109.644 195.343C111.306 194.251 113.009 193.173 114.752 192.11L115.273 192.964ZM105.247 199.559C103.599 200.729 101.999 201.915 100.446 203.115L99.8346 202.324C101.398 201.116 103.01 199.922 104.667 198.744L105.247 199.559ZM95.8027 206.868C94.2504 208.181 92.754 209.51 91.3148 210.853L90.6324 210.122C92.0839 208.767 93.5926 207.428 95.157 206.104L95.8027 206.868ZM87.0479 215.056C85.6436 216.519 84.3059 217.997 83.0365 219.491L82.2745 218.843C83.5575 217.333 84.9089 215.84 86.3267 214.364L87.0479 215.056ZM79.3229 224.168C78.121 225.794 76.9988 227.437 75.9585 229.095L75.1114 228.564C76.1658 226.883 77.3023 225.219 78.5187 223.573L79.3229 224.168ZM73.0034 234.273C72.082 236.062 71.2548 237.868 70.5242 239.689L69.5961 239.317C70.3388 237.466 71.1791 235.632 72.1143 233.815L73.0034 234.273ZM68.5893 245.317C68.0392 247.235 67.5955 249.168 67.2608 251.114L66.2753 250.945C66.6163 248.962 67.0682 246.994 67.628 245.042L68.5893 245.317ZM66.5852 257.02C66.5285 258.01 66.5 259.004 66.5 260L65.5 260C65.5 258.984 65.5291 257.972 65.5868 256.963L66.5852 257.02ZM66.5 260C66.5 260.997 66.5285 261.99 66.5852 262.98L65.5868 263.037C65.5291 262.028 65.5 261.016 65.5 260L66.5 260ZM67.2608 268.886C67.5955 270.832 68.0392 272.765 68.5893 274.683L67.6281 274.958C67.0682 273.006 66.6163 271.038 66.2753 269.055L67.2608 268.886ZM70.5242 280.311C71.2548 282.132 72.082 283.938 73.0035 285.727L72.1144 286.185C71.1791 284.369 70.3388 282.534 69.5962 280.684L70.5242 280.311ZM75.9586 290.905C76.9989 292.563 78.121 294.206 79.323 295.832L78.5187 296.427C77.3023 294.781 76.1658 293.117 75.1115 291.436L75.9586 290.905ZM83.0365 300.51C84.3059 302.003 85.6437 303.482 87.048 304.944L86.3268 305.636C84.9089 304.16 83.5576 302.667 82.2746 301.157L83.0365 300.51ZM91.3149 309.147C92.7541 310.49 94.2505 311.819 95.8028 313.132L95.1571 313.896C93.5927 312.573 92.084 311.233 90.6325 309.878L91.3149 309.147ZM100.446 316.885C101.999 318.085 103.6 319.271 105.247 320.441L104.667 321.257C103.01 320.078 101.398 318.884 99.8347 317.676L100.446 316.885ZM110.193 323.821C111.846 324.907 113.539 325.979 115.273 327.037L114.752 327.89C113.009 326.827 111.306 325.749 109.644 324.657L110.193 323.821ZM120.432 330.073C122.144 331.046 123.891 332.005 125.673 332.951L125.204 333.834C123.414 332.884 121.659 331.92 119.938 330.942L120.432 330.073ZM131.017 335.695C132.79 336.577 134.594 337.445 136.428 338.299L136.005 339.206C134.164 338.348 132.353 337.476 130.572 336.591L131.017 335.695ZM141.875 340.76C143.693 341.556 145.537 342.339 147.408 343.109L147.028 344.034C145.15 343.261 143.298 342.475 141.474 341.676L141.875 340.76ZM152.979 345.333C154.824 346.047 156.692 346.749 158.583 347.438L158.241 348.377C156.343 347.686 154.469 346.982 152.618 346.265L152.979 345.333ZM164.264 349.446C166.133 350.087 168.024 350.716 169.935 351.333L169.628 352.284C167.711 351.666 165.815 351.035 163.939 350.392L164.264 349.446ZM175.666 353.127C177.568 353.704 179.489 354.27 181.428 354.823L181.153 355.784C179.209 355.23 177.283 354.663 175.376 354.084L175.666 353.127ZM187.2 356.419C189.128 356.935 191.073 357.44 193.034 357.932L192.79 358.902C190.824 358.408 188.874 357.902 186.941 357.385L187.2 356.419ZM198.84 359.343C200.782 359.8 202.739 360.245 204.711 360.678L204.496 361.655C202.52 361.221 200.558 360.775 198.611 360.317L198.84 359.343ZM210.565 361.92C212.518 362.319 214.484 362.708 216.463 363.084L216.276 364.066C214.292 363.689 212.322 363.3 210.365 362.899L210.565 361.92ZM222.361 364.164C224.322 364.51 226.296 364.844 228.281 365.166L228.121 366.153C226.131 365.83 224.153 365.495 222.187 365.149L222.361 364.164ZM234.213 366.09C236.182 366.384 238.162 366.666 240.152 366.937L240.017 367.928C238.023 367.656 236.038 367.373 234.065 367.079L234.213 366.09ZM246.11 367.709C248.086 367.953 250.071 368.185 252.066 368.406L251.956 369.4C249.957 369.178 247.967 368.946 245.988 368.702L246.11 367.709ZM258.043 369.031C260.025 369.226 262.015 369.41 264.014 369.583L263.928 370.579C261.925 370.406 259.931 370.222 257.945 370.026L258.043 369.031ZM270.005 370.064C271.991 370.212 273.985 370.349 275.987 370.474L275.924 371.472C273.918 371.346 271.92 371.21 269.93 371.061L270.005 370.064ZM281.986 370.815C283.976 370.917 285.974 371.007 287.978 371.086L287.938 372.086C285.93 372.006 283.929 371.916 281.935 371.814L281.986 370.815ZM293.982 371.289C295.975 371.345 297.975 371.39 299.981 371.424L299.964 372.424C297.954 372.39 295.951 372.345 293.954 372.289L293.982 371.289ZM305.985 371.492C306.988 371.497 307.993 371.5 309 371.5L309 372.5C307.992 372.5 306.985 372.497 305.979 372.492L305.985 371.492ZM309 371.5C310.007 371.5 311.012 371.497 312.015 371.492L312.021 372.492C311.015 372.497 310.008 372.5 309 372.5L309 371.5ZM318.019 371.424C320.025 371.39 322.025 371.345 324.018 371.289L324.046 372.289C322.05 372.345 320.046 372.39 318.036 372.424L318.019 371.424ZM330.022 371.086C332.026 371.007 334.024 370.917 336.014 370.815L336.065 371.814C334.071 371.916 332.07 372.006 330.062 372.086L330.022 371.086ZM342.013 370.474C344.015 370.349 346.009 370.212 347.995 370.064L348.07 371.061C346.08 371.21 344.082 371.346 342.076 371.472L342.013 370.474ZM353.986 369.583C355.985 369.41 357.975 369.226 359.957 369.031L360.055 370.026C358.069 370.222 356.075 370.406 354.072 370.579L353.986 369.583ZM365.934 368.406C367.929 368.185 369.914 367.953 371.89 367.709L372.012 368.702C370.033 368.946 368.043 369.178 366.044 369.4L365.934 368.406ZM377.848 366.937C379.838 366.666 381.818 366.384 383.787 366.09L383.935 367.079C381.962 367.373 379.977 367.656 377.983 367.928L377.848 366.937ZM389.719 365.166C391.705 364.844 393.678 364.51 395.639 364.164L395.813 365.149C393.847 365.495 391.869 365.83 389.879 366.153L389.719 365.166ZM401.537 363.084C403.516 362.708 405.482 362.319 407.435 361.92L407.635 362.899C405.678 363.3 403.708 363.689 401.724 364.066L401.537 363.084ZM413.289 360.678C415.261 360.245 417.218 359.8 419.16 359.343L419.389 360.317C417.442 360.775 415.48 361.221 413.504 361.655L413.289 360.678ZM424.966 357.932C426.927 357.44 428.872 356.935 430.8 356.419L431.059 357.385C429.126 357.902 427.176 358.408 425.21 358.902L424.966 357.932ZM436.572 354.823C438.511 354.269 440.432 353.704 442.334 353.127L442.624 354.084C440.717 354.663 438.791 355.23 436.847 355.784L436.572 354.823ZM448.065 351.333C449.976 350.716 451.867 350.087 453.736 349.446L454.061 350.392C452.185 351.035 450.289 351.666 448.372 352.284L448.065 351.333ZM459.417 347.438C461.308 346.748 463.176 346.047 465.021 345.333L465.382 346.265C463.531 346.982 461.657 347.686 459.759 348.377L459.417 347.438ZM470.592 343.109C472.463 342.339 474.307 341.556 476.125 340.76L476.526 341.676C474.702 342.475 472.85 343.261 470.972 344.033L470.592 343.109ZM481.572 338.299C483.406 337.445 485.21 336.577 486.983 335.695L487.428 336.591C485.647 337.476 483.836 338.348 481.995 339.206L481.572 338.299ZM492.327 332.951C494.109 332.005 495.856 331.046 497.568 330.073L498.062 330.942C496.342 331.92 494.586 332.884 492.796 333.834L492.327 332.951ZM502.727 327.036C504.461 325.979 506.154 324.907 507.807 323.821L508.356 324.657C506.694 325.749 504.991 326.827 503.248 327.89L502.727 327.036ZM512.753 320.441C514.401 319.271 516.001 318.085 517.554 316.885L518.165 317.676C516.602 318.884 514.99 320.078 513.333 321.256L512.753 320.441ZM522.197 313.132C523.75 311.819 525.246 310.49 526.685 309.147L527.368 309.878C525.916 311.233 524.407 312.572 522.843 313.896L522.197 313.132ZM530.952 304.944C532.356 303.481 533.694 302.003 534.964 300.509L535.726 301.157C534.443 302.667 533.091 304.16 531.673 305.636L530.952 304.944ZM538.677 295.832C539.879 294.206 541.001 292.563 542.041 290.905L542.889 291.436C541.834 293.117 540.698 294.781 539.481 296.427L538.677 295.832ZM544.997 285.727C545.918 283.938 546.745 282.132 547.476 280.311L548.404 280.683C547.661 282.534 546.821 284.368 545.886 286.185L544.997 285.727ZM549.411 274.683C549.961 272.765 550.405 270.832 550.739 268.886L551.725 269.055C551.384 271.038 550.932 273.006 550.372 274.958L549.411 274.683ZM551.415 262.98C551.471 261.99 551.5 260.996 551.5 260L552.5 260C552.5 261.016 552.471 262.028 552.413 263.037L551.415 262.98ZM552 254.667C554.946 254.667 557.333 257.054 557.333 260C557.333 262.946 554.946 265.333 552 265.333C549.054 265.333 546.667 262.946 546.667 260C546.667 257.054 549.054 254.667 552 254.667ZM309 148L299.016 153.802L298.984 142.255L309 148ZM299.989 149.076C297.985 149.109 295.987 149.154 293.996 149.21L293.939 147.211C295.938 147.155 297.944 147.11 299.955 147.076L299.989 149.076ZM287.998 149.413C285.995 149.492 284 149.583 282.012 149.684L281.91 147.687C283.906 147.585 285.909 147.494 287.919 147.415L287.998 149.413ZM276.018 150.025C274.018 150.15 272.026 150.287 270.042 150.434L269.893 148.44C271.885 148.292 273.885 148.155 275.893 148.029L276.018 150.025ZM264.057 150.915C262.06 151.088 260.072 151.272 258.092 151.467L257.896 149.476C259.884 149.281 261.88 149.096 263.885 148.923L264.057 150.915ZM252.121 152.091C250.128 152.312 248.145 152.544 246.171 152.787L245.926 150.802C247.908 150.558 249.9 150.325 251.901 150.103L252.121 152.091ZM240.22 153.559C238.231 153.829 236.253 154.111 234.286 154.405L233.991 152.426C235.967 152.132 237.953 151.849 239.95 151.577L240.22 153.559ZM228.361 155.327C226.378 155.65 224.406 155.983 222.447 156.328L222.1 154.359C224.068 154.012 226.048 153.677 228.04 153.353L228.361 155.327ZM216.556 157.407C214.579 157.783 212.616 158.171 210.665 158.57L210.264 156.611C212.224 156.21 214.197 155.82 216.183 155.442L216.556 157.407ZM204.818 159.81C202.848 160.243 200.894 160.687 198.954 161.143L198.496 159.197C200.446 158.738 202.41 158.292 204.389 157.857L204.818 159.81ZM193.156 162.553C191.197 163.045 189.255 163.549 187.329 164.064L186.812 162.132C188.747 161.614 190.7 161.107 192.668 160.613L193.156 162.553ZM181.565 165.658C179.629 166.211 177.711 166.775 175.811 167.352L175.231 165.438C177.141 164.858 179.069 164.29 181.016 163.735L181.565 165.658ZM170.088 169.143C168.18 169.759 166.293 170.387 164.426 171.027L163.777 169.135C165.656 168.491 167.555 167.859 169.474 167.24L170.088 169.143ZM158.754 173.032C156.866 173.72 155.001 174.421 153.16 175.134L152.438 173.269C154.292 172.551 156.169 171.846 158.069 171.153L158.754 173.032ZM147.598 177.354C145.731 178.122 143.89 178.904 142.075 179.698L141.273 177.866C143.101 177.066 144.956 176.278 146.837 175.504L147.598 177.354ZM136.639 182.154C134.809 183.007 133.009 183.873 131.239 184.752L130.349 182.961C132.134 182.074 133.949 181.201 135.794 180.341L136.639 182.154ZM125.907 187.491C124.13 188.434 122.387 189.392 120.679 190.362L119.691 188.623C121.416 187.643 123.176 186.677 124.969 185.724L125.907 187.491ZM115.533 193.39C113.804 194.445 112.116 195.514 110.468 196.597L109.369 194.925C111.037 193.83 112.744 192.749 114.492 191.683L115.533 193.39ZM105.536 199.966C103.894 201.133 102.299 202.315 100.752 203.511L99.5289 201.929C101.098 200.716 102.715 199.518 104.377 198.336L105.536 199.966ZM96.1256 207.25C94.5793 208.558 93.089 209.881 91.656 211.219L90.2911 209.757C91.7489 208.396 93.2637 207.051 94.8341 205.723L96.1256 207.25ZM87.4085 215.403C86.0109 216.858 84.68 218.329 83.4175 219.814L81.8935 218.519C83.1833 217.001 84.5415 215.501 85.966 214.017L87.4085 215.403ZM79.725 224.465C78.5303 226.082 77.4154 227.714 76.3821 229.361L74.6879 228.298C75.7492 226.606 76.8929 224.932 78.1165 223.276L79.725 224.465ZM73.448 234.502C72.5334 236.278 71.7128 238.07 70.9882 239.875L69.1321 239.13C69.8808 237.265 70.7276 235.416 71.6698 233.586L73.448 234.502ZM69.0699 245.455C68.5247 247.356 68.0851 249.271 67.7536 251.199L65.7825 250.86C66.1266 248.859 66.5826 246.873 67.1474 244.904L69.0699 245.455ZM67.0843 257.049C67.0282 258.029 67 259.013 67 260L65 260C65 258.975 65.0293 257.953 65.0876 256.934L67.0843 257.049ZM67 260C67 260.987 67.0282 261.971 67.0843 262.952L65.0876 263.066C65.0293 262.047 65 261.025 65 260L67 260ZM67.7536 268.801C68.0851 270.729 68.5248 272.644 69.0699 274.545L67.1475 275.096C66.5827 273.127 66.1266 271.141 65.7825 269.14L67.7536 268.801ZM70.9883 280.125C71.7128 281.931 72.5335 283.722 73.448 285.499L71.6698 286.414C70.7277 284.584 69.8808 282.735 69.1321 280.87L70.9883 280.125ZM76.3821 290.639C77.4154 292.286 78.5304 293.919 79.7251 295.535L78.1166 296.724C76.893 295.068 75.7493 293.394 74.688 291.702L76.3821 290.639ZM83.4175 300.186C84.6801 301.671 86.011 303.142 87.4086 304.597L85.9661 305.983C84.5416 304.5 83.1834 302.999 81.8936 301.481L83.4175 300.186ZM91.6561 308.781C93.0891 310.119 94.5794 311.442 96.1257 312.75L94.8342 314.277C93.2638 312.949 91.749 311.604 90.2912 310.243L91.6561 308.781ZM100.752 316.489C102.299 317.685 103.895 318.867 105.536 320.034L104.378 321.664C102.715 320.482 101.098 319.284 99.529 318.071L100.752 316.489ZM110.468 323.404C112.116 324.486 113.804 325.555 115.533 326.61L114.492 328.317C112.744 327.251 111.037 326.17 109.37 325.075L110.468 323.404ZM120.679 329.638C122.387 330.609 124.13 331.566 125.907 332.509L124.97 334.276C123.176 333.324 121.416 332.357 119.691 331.377L120.679 329.638ZM131.239 335.248C133.009 336.127 134.809 336.993 136.639 337.846L135.794 339.659C133.949 338.799 132.134 337.926 130.349 337.039L131.239 335.248ZM142.075 340.302C143.89 341.096 145.731 341.878 147.598 342.646L146.837 344.496C144.956 343.722 143.101 342.934 141.273 342.134L142.075 340.302ZM153.16 344.866C155.001 345.579 156.866 346.28 158.754 346.968L158.069 348.847C156.169 348.154 154.292 347.449 152.438 346.731L153.16 344.866ZM164.426 348.973C166.293 349.613 168.18 350.241 170.088 350.857L169.474 352.76C167.555 352.141 165.656 351.509 163.777 350.865L164.426 348.973ZM175.812 352.648C177.711 353.225 179.629 353.789 181.565 354.342L181.016 356.265C179.069 355.71 177.141 355.142 175.231 354.562L175.812 352.648ZM187.329 355.936C189.255 356.451 191.197 356.955 193.156 357.447L192.668 359.387C190.7 358.893 188.747 358.386 186.812 357.868L187.329 355.936ZM198.954 358.857C200.894 359.313 202.849 359.757 204.818 360.19L204.389 362.143C202.41 361.708 200.446 361.262 198.496 360.804L198.954 358.857ZM210.665 361.43C212.616 361.829 214.579 362.217 216.556 362.593L216.183 364.558C214.197 364.18 212.224 363.79 210.264 363.389L210.665 361.43ZM222.447 363.672C224.407 364.017 226.378 364.35 228.361 364.673L228.04 366.647C226.049 366.323 224.068 365.988 222.1 365.641L222.447 363.672ZM234.286 365.595C236.253 365.889 238.231 366.171 240.22 366.441L239.95 368.423C237.953 368.151 235.967 367.868 233.991 367.574L234.286 365.595ZM246.171 367.213C248.145 367.456 250.128 367.688 252.121 367.909L251.901 369.897C249.9 369.675 247.908 369.442 245.926 369.198L246.171 367.213ZM258.092 368.533C260.072 368.728 262.06 368.912 264.057 369.085L263.885 371.077C261.88 370.904 259.884 370.72 257.896 370.524L258.092 368.533ZM270.042 369.566C272.026 369.713 274.018 369.85 276.018 369.975L275.893 371.971C273.885 371.845 271.885 371.708 269.893 371.56L270.042 369.566ZM282.012 370.316C284 370.417 285.995 370.508 287.998 370.587L287.919 372.585C285.909 372.506 283.906 372.415 281.91 372.313L282.012 370.316ZM293.996 370.79C295.987 370.846 297.985 370.891 299.989 370.924L299.955 372.924C297.944 372.89 295.938 372.845 293.939 372.789L293.996 370.79ZM305.987 370.992C306.99 370.997 307.994 371 309 371L309 373C307.991 373 306.983 372.997 305.976 372.992L305.987 370.992ZM309 371C310.006 371 311.01 370.997 312.013 370.992L312.024 372.992C311.017 372.997 310.009 373 309 373L309 371ZM318.011 370.924C320.015 370.891 322.013 370.846 324.004 370.79L324.061 372.789C322.062 372.845 320.056 372.89 318.045 372.924L318.011 370.924ZM330.002 370.587C332.005 370.508 334 370.417 335.988 370.316L336.09 372.313C334.094 372.415 332.091 372.506 330.081 372.585L330.002 370.587ZM341.982 369.975C343.982 369.85 345.974 369.713 347.958 369.566L348.107 371.56C346.115 371.708 344.115 371.845 342.107 371.971L341.982 369.975ZM353.943 369.085C355.94 368.912 357.928 368.728 359.908 368.533L360.104 370.524C358.116 370.72 356.12 370.904 354.115 371.077L353.943 369.085ZM365.879 367.909C367.872 367.688 369.855 367.456 371.829 367.213L372.074 369.198C370.092 369.442 368.1 369.675 366.099 369.897L365.879 367.909ZM377.78 366.441C379.769 366.171 381.747 365.889 383.714 365.595L384.009 367.574C382.033 367.868 380.047 368.151 378.05 368.423L377.78 366.441ZM389.639 364.673C391.622 364.35 393.594 364.017 395.553 363.672L395.9 365.641C393.932 365.988 391.952 366.323 389.96 366.647L389.639 364.673ZM401.444 362.593C403.421 362.217 405.384 361.829 407.335 361.43L407.736 363.389C405.776 363.79 403.803 364.18 401.817 364.558L401.444 362.593ZM413.182 360.19C415.152 359.757 417.106 359.313 419.046 358.857L419.504 360.803C417.554 361.262 415.59 361.708 413.611 362.143L413.182 360.19ZM424.844 357.447C426.803 356.955 428.745 356.451 430.671 355.936L431.188 357.868C429.253 358.386 427.3 358.893 425.332 359.387L424.844 357.447ZM436.435 354.342C438.371 353.789 440.289 353.225 442.189 352.648L442.769 354.562C440.859 355.142 438.931 355.71 436.984 356.265L436.435 354.342ZM447.912 350.857C449.82 350.241 451.707 349.613 453.574 348.973L454.223 350.865C452.344 351.509 450.445 352.141 448.526 352.76L447.912 350.857ZM459.246 346.968C461.134 346.28 462.999 345.579 464.84 344.866L465.562 346.731C463.708 347.449 461.831 348.154 459.931 348.847L459.246 346.968ZM470.402 342.646C472.269 341.878 474.11 341.096 475.925 340.302L476.727 342.134C474.899 342.934 473.044 343.722 471.163 344.496L470.402 342.646ZM481.361 337.846C483.191 336.993 484.991 336.127 486.761 335.248L487.651 337.039C485.866 337.926 484.051 338.799 482.206 339.659L481.361 337.846ZM492.093 332.509C493.87 331.566 495.613 330.609 497.321 329.638L498.309 331.377C496.584 332.357 494.824 333.324 493.031 334.276L492.093 332.509ZM502.467 326.61C504.196 325.555 505.884 324.486 507.532 323.404L508.63 325.075C506.964 326.17 505.256 327.251 503.508 328.317L502.467 326.61ZM512.464 320.034C514.106 318.867 515.701 317.685 517.248 316.489L518.471 318.071C516.902 319.284 515.285 320.482 513.623 321.664L512.464 320.034ZM521.874 312.75C523.421 311.442 524.911 310.119 526.344 308.781L527.709 310.243C526.251 311.604 524.736 312.949 523.166 314.277L521.874 312.75ZM530.591 304.597C531.989 303.142 533.32 301.671 534.583 300.186L536.107 301.481C534.817 302.999 533.458 304.499 532.034 305.983L530.591 304.597ZM538.275 295.535C539.47 293.918 540.585 292.286 541.618 290.639L543.312 291.702C542.251 293.394 541.107 295.068 539.883 296.724L538.275 295.535ZM544.552 285.498C545.467 283.722 546.287 281.93 547.012 280.125L548.868 280.87C548.119 282.735 547.272 284.584 546.33 286.414L544.552 285.498ZM548.93 274.545C549.475 272.644 549.915 270.729 550.246 268.801L552.217 269.14C551.873 271.141 551.417 273.127 550.853 275.096L548.93 274.545ZM550.916 262.952C550.972 261.971 551 260.987 551 260L553 260C553 261.025 552.971 262.047 552.912 263.066L550.916 262.952Z" fill="white"/>
<path d="M248.851 63.5585C250.238 63.0616 250.959 61.5348 250.462 60.1484C249.965 58.7621 248.438 58.041 247.052 58.538C245.665 59.035 244.944 60.5617 245.441 61.9481C245.938 63.3345 247.465 64.0555 248.851 63.5585ZM138.694 292.402L137.709 298.091L143.128 296.099L138.694 292.402ZM141.43 300.881C142.191 302.719 142.979 304.538 143.793 306.338L144.705 305.925C143.894 304.135 143.111 302.326 142.354 300.499L141.43 300.881ZM146.328 311.703C147.204 313.483 148.107 315.243 149.036 316.983L149.918 316.512C148.994 314.782 148.096 313.031 147.225 311.261L146.328 311.703ZM151.919 322.179C152.91 323.897 153.926 325.594 154.967 327.27L155.817 326.742C154.781 325.075 153.771 323.388 152.785 321.679L151.919 322.179ZM158.183 332.26C159.285 333.91 160.412 335.538 161.564 337.144L162.376 336.562C161.232 334.965 160.111 333.345 159.015 331.704L158.183 332.26ZM165.1 341.91C166.307 343.483 167.539 345.032 168.793 346.559L169.566 345.924C168.318 344.406 167.094 342.865 165.893 341.301L165.1 341.91ZM172.639 351.085C173.947 352.573 175.277 354.038 176.629 355.479L177.358 354.794C176.014 353.362 174.691 351.905 173.39 350.425L172.639 351.085ZM180.763 359.74C182.166 361.139 183.591 362.514 185.036 363.864L185.719 363.133C184.281 361.791 182.865 360.424 181.469 359.032L180.763 359.74ZM189.44 367.844C190.931 369.148 192.442 370.426 193.973 371.678L194.606 370.904C193.084 369.659 191.581 368.388 190.098 367.091L189.44 367.844ZM198.63 375.363C200.203 376.566 201.794 377.742 203.403 378.892L203.985 378.078C202.384 376.935 200.802 375.765 199.237 374.568L198.63 375.363ZM208.29 382.264C209.938 383.361 211.603 384.432 213.284 385.475L213.811 384.625C212.139 383.588 210.483 382.523 208.844 381.431L208.29 382.264ZM218.38 388.521C220.095 389.509 221.826 390.469 223.572 391.4L224.043 390.518C222.306 389.592 220.585 388.637 218.879 387.655L218.38 388.521ZM228.856 394.109C230.631 394.983 232.421 395.828 234.224 396.644L234.636 395.733C232.843 394.921 231.063 394.081 229.297 393.211L228.856 394.109ZM239.672 399.003C241.501 399.76 243.341 400.487 245.194 401.184L245.546 400.248C243.704 399.555 241.873 398.832 240.055 398.079L239.672 399.003ZM250.784 403.184C252.658 403.82 254.542 404.426 256.437 405.001L256.728 404.044C254.843 403.472 252.969 402.87 251.105 402.237L250.784 403.184ZM262.145 406.633C264.055 407.145 265.975 407.627 267.903 408.077L268.131 407.103C266.213 406.655 264.304 406.177 262.404 405.667L262.145 406.633ZM273.707 409.333C275.646 409.719 277.593 410.074 279.548 410.398L279.711 409.411C277.767 409.09 275.831 408.736 273.903 408.352L273.707 409.333ZM285.419 411.27C287.38 411.529 289.347 411.756 291.319 411.95L291.417 410.955C289.456 410.761 287.5 410.536 285.55 410.279L285.419 411.27ZM297.236 412.435C299.207 412.564 301.184 412.661 303.164 412.725L303.196 411.726C301.227 411.662 299.262 411.566 297.301 411.437L297.236 412.435ZM309.103 412.82C311.079 412.819 313.057 412.786 315.039 412.719L315.005 411.72C313.035 411.786 311.067 411.819 309.102 411.82L309.103 412.82ZM320.966 412.422C322.938 412.291 324.911 412.127 326.886 411.93L326.787 410.935C324.823 411.131 322.86 411.294 320.899 411.425L320.966 412.422ZM332.782 411.243C334.738 410.983 336.694 410.689 338.65 410.363L338.486 409.377C336.541 409.701 334.595 409.993 332.65 410.252L332.782 411.243ZM344.495 409.289C346.429 408.901 348.362 408.48 350.293 408.026L350.064 407.053C348.143 407.504 346.221 407.923 344.298 408.309L344.495 409.289ZM356.046 406.574C357.954 406.06 359.859 405.513 361.762 404.933L361.47 403.977C359.578 404.553 357.683 405.097 355.786 405.609L356.046 406.574ZM367.403 403.113C368.342 402.794 369.28 402.466 370.217 402.13L369.879 401.189C368.947 401.523 368.015 401.849 367.081 402.167L367.403 403.113ZM370.217 402.13C371.153 401.795 372.086 401.452 373.014 401.102L372.661 400.166C371.738 400.514 370.811 400.855 369.879 401.189L370.217 402.13ZM378.527 398.923C380.364 398.163 382.183 397.375 383.983 396.56L383.571 395.649C381.781 396.459 379.972 397.243 378.144 397.999L378.527 398.923ZM389.349 394.026C391.129 393.15 392.889 392.247 394.629 391.318L394.158 390.436C392.427 391.359 390.677 392.257 388.907 393.129L389.349 394.026ZM399.825 388.434C401.542 387.444 403.239 386.428 404.915 385.386L404.388 384.537C402.721 385.572 401.033 386.583 399.325 387.568L399.825 388.434ZM409.905 382.171C411.556 381.068 413.184 379.941 414.79 378.79L414.208 377.977C412.61 379.122 410.991 380.243 409.35 381.339L409.905 382.171ZM419.556 375.254C421.128 374.046 422.678 372.815 424.204 371.561L423.569 370.788C422.051 372.035 420.51 373.26 418.947 374.461L419.556 375.254ZM428.73 367.715C430.219 366.407 431.684 365.076 433.124 363.724L432.44 362.995C431.007 364.34 429.551 365.663 428.07 366.963L428.73 367.715ZM437.385 359.591C438.785 358.187 440.16 356.763 441.51 355.317L440.779 354.635C439.437 356.072 438.069 357.489 436.677 358.884L437.385 359.591ZM445.49 350.913C446.794 349.422 448.072 347.911 449.324 346.381L448.55 345.748C447.305 347.27 446.034 348.772 444.737 350.255L445.49 350.913ZM453.008 341.724C454.211 340.151 455.388 338.559 456.538 336.95L455.724 336.369C454.581 337.969 453.411 339.552 452.214 341.116L453.008 341.724ZM459.909 332.064C461.007 330.416 462.078 328.751 463.12 327.069L462.271 326.542C461.234 328.215 460.169 329.871 459.077 331.51L459.909 332.064ZM466.167 321.974C467.155 320.258 468.114 318.527 469.046 316.782L468.163 316.311C467.237 318.047 466.283 319.769 465.3 321.475L466.167 321.974ZM471.754 311.498C472.628 309.722 473.474 307.933 474.29 306.13L473.378 305.717C472.567 307.511 471.726 309.291 470.857 311.056L471.754 311.498ZM476.649 300.681C477.406 298.853 478.133 297.012 478.83 295.159L477.894 294.807C477.201 296.65 476.478 298.481 475.725 300.299L476.649 300.681ZM480.83 289.57C481.466 287.696 482.072 285.811 482.647 283.917L481.69 283.626C481.118 285.511 480.516 287.385 479.883 289.248L480.83 289.57ZM484.278 278.209C484.791 276.298 485.272 274.379 485.723 272.451L484.749 272.223C484.301 274.141 483.822 276.05 483.313 277.95L484.278 278.209ZM486.978 266.646C487.365 264.707 487.72 262.76 488.043 260.806L487.057 260.643C486.735 262.586 486.382 264.522 485.998 266.451L486.978 266.646ZM488.916 254.935C489.174 252.974 489.401 251.007 489.596 249.035L488.6 248.936C488.407 250.898 488.182 252.854 487.924 254.804L488.916 254.935ZM490.081 243.118C490.21 241.146 490.307 239.17 490.371 237.19L489.372 237.157C489.308 239.126 489.211 241.092 489.083 243.052L490.081 243.118ZM490.466 231.251C490.465 229.275 490.431 227.296 490.365 225.315L489.365 225.348C489.431 227.319 489.465 229.287 489.466 231.251L490.466 231.251ZM490.068 219.388C489.937 217.416 489.773 215.442 489.576 213.468L488.581 213.567C488.777 215.531 488.94 217.493 489.07 219.454L490.068 219.388ZM488.889 207.571C488.628 205.615 488.335 203.659 488.009 201.703L487.022 201.868C487.347 203.813 487.639 205.758 487.898 207.703L488.889 207.571ZM486.935 195.859C486.547 193.925 486.126 191.992 485.672 190.061L484.698 190.29C485.15 192.21 485.568 194.132 485.954 196.055L486.935 195.859ZM484.22 184.307C483.706 182.4 483.159 180.494 482.579 178.592L481.622 178.884C482.199 180.776 482.743 182.671 483.255 184.568L484.22 184.307ZM480.759 172.95C480.44 172.012 480.112 171.074 479.776 170.137L478.835 170.474C479.169 171.406 479.495 172.339 479.812 173.273L480.759 172.95ZM479.776 170.137C479.44 169.2 479.097 168.268 478.748 167.34L477.812 167.692C478.16 168.615 478.501 169.543 478.835 170.474L479.776 170.137ZM476.569 161.827C475.808 159.989 475.02 158.17 474.206 156.37L473.295 156.783C474.105 158.573 474.888 160.382 475.645 162.209L476.569 161.827ZM471.672 151.005C470.795 149.225 469.892 147.465 468.964 145.725L468.082 146.196C469.005 147.926 469.903 149.677 470.774 151.447L471.672 151.005ZM466.08 140.529C465.09 138.811 464.073 137.114 463.032 135.438L462.182 135.966C463.218 137.633 464.229 139.32 465.214 141.029L466.08 140.529ZM459.816 130.448C458.714 128.798 457.587 127.17 456.436 125.563L455.623 126.146C456.768 127.743 457.889 129.363 458.985 131.004L459.816 130.448ZM452.899 120.798C451.692 119.225 450.461 117.676 449.206 116.149L448.434 116.784C449.681 118.302 450.905 119.843 452.106 121.407L452.899 120.798ZM445.36 111.623C444.052 110.135 442.722 108.67 441.37 107.229L440.641 107.914C441.986 109.346 443.308 110.803 444.609 112.283L445.36 111.623ZM437.236 102.968C435.833 101.569 434.408 100.194 432.963 98.8438L432.281 99.5746C433.718 100.917 435.135 102.284 436.53 103.676L437.236 102.968ZM428.559 94.8638C427.068 93.5601 425.557 92.282 424.027 91.03L423.393 91.8039C424.915 93.049 426.418 94.3201 427.901 95.6166L428.559 94.8638ZM419.369 87.3453C417.797 86.1422 416.205 84.9656 414.596 83.816L414.015 84.6297C415.615 85.773 417.198 86.9431 418.762 88.1395L419.369 87.3453ZM409.71 80.4444C408.062 79.3465 406.397 78.276 404.715 77.2331L404.188 78.083C405.86 79.1201 407.516 80.1847 409.155 81.2767L409.71 80.4444ZM399.619 74.1868C397.904 73.199 396.173 72.2392 394.427 71.308L393.957 72.1904C395.693 73.1164 397.414 74.0709 399.12 75.0534L399.619 74.1868ZM389.144 68.5993C387.368 67.7252 385.578 66.88 383.775 66.0641L383.363 66.9752C385.156 67.7866 386.936 68.6272 388.702 69.4965L389.144 68.5993ZM378.327 63.7046C376.499 62.9479 374.658 62.2209 372.805 61.5238L372.453 62.4597C374.295 63.153 376.126 63.876 377.944 64.6286L378.327 63.7046ZM367.215 59.5238C365.342 58.8877 363.457 58.2818 361.562 57.7067L361.272 58.6635C363.156 59.2356 365.031 59.8381 366.894 60.4708L367.215 59.5238ZM355.854 56.0752C353.944 55.5628 352.024 55.0812 350.096 54.6309L349.869 55.6047C351.786 56.0525 353.696 56.5314 355.595 57.041L355.854 56.0752ZM344.292 53.3751C342.353 52.9887 340.406 52.6337 338.452 52.3104L338.289 53.297C340.232 53.6185 342.168 53.9716 344.096 54.3559L344.292 53.3751ZM332.58 51.4378C330.62 51.1792 328.653 50.9525 326.68 50.758L326.582 51.7532C328.544 51.9466 330.5 52.172 332.449 52.4292L332.58 51.4378ZM320.763 50.2728C318.792 50.1437 316.816 50.0469 314.835 49.9826L314.803 50.9821C316.772 51.046 318.737 51.1423 320.698 51.2706L320.763 50.2728ZM308.896 49.8878C306.921 49.8889 304.942 49.9224 302.96 49.9889L302.994 50.9883C304.964 50.9222 306.932 50.8889 308.897 50.8878L308.896 49.8878ZM297.033 50.2855C295.062 50.4168 293.088 50.5808 291.113 50.7779L291.213 51.773C293.176 51.577 295.139 51.4139 297.1 51.2833L297.033 50.2855ZM285.217 51.4648C283.261 51.7253 281.305 52.0185 279.349 52.3448L279.513 53.3312C281.458 53.0067 283.404 52.7151 285.349 52.456L285.217 51.4648ZM273.504 53.4188C271.57 53.8071 269.638 54.228 267.706 54.6819L267.935 55.6554C269.856 55.204 271.778 54.7853 273.701 54.3992L273.504 53.4188ZM261.953 56.1335C260.045 56.6479 258.14 57.1949 256.238 57.7749L256.529 58.7314C258.421 58.1546 260.316 57.6106 262.213 57.099L261.953 56.1335ZM250.596 59.5946C249.657 59.9141 248.719 60.2418 247.783 60.5776L248.12 61.5189C249.052 61.1849 249.985 60.859 250.918 60.5413L250.596 59.5946ZM249.751 66.0688C252.524 65.0749 253.966 62.0214 252.972 59.2486C251.978 56.4758 248.924 55.0338 246.152 56.0277C243.379 57.0217 241.937 60.0752 242.931 62.8479C243.925 65.6207 246.978 67.0627 249.751 66.0688ZM138.694 292.402L136.725 303.78L147.563 299.796L138.694 292.402ZM140.968 301.072C141.731 302.915 142.521 304.739 143.338 306.544L145.16 305.719C144.352 303.934 143.571 302.13 142.816 300.307L140.968 301.072ZM145.879 311.924C146.758 313.709 147.663 315.474 148.594 317.218L150.359 316.277C149.438 314.551 148.542 312.806 147.673 311.041L145.879 311.924ZM151.486 322.429C152.479 324.151 153.498 325.853 154.543 327.534L156.242 326.478C155.209 324.816 154.201 323.133 153.219 321.43L151.486 322.429ZM157.767 332.537C158.873 334.192 160.003 335.825 161.157 337.436L162.783 336.271C161.641 334.678 160.523 333.063 159.43 331.427L157.767 332.537ZM164.703 342.215C165.914 343.791 167.149 345.345 168.407 346.876L169.952 345.606C168.708 344.093 167.487 342.556 166.29 340.997L164.703 342.215ZM172.263 351.415C173.575 352.907 174.909 354.376 176.265 355.821L177.723 354.452C176.382 353.023 175.063 351.571 173.766 350.095L172.263 351.415ZM180.41 360.094C181.817 361.497 183.246 362.876 184.695 364.23L186.06 362.768C184.627 361.429 183.214 360.066 181.822 358.678L180.41 360.094ZM189.111 368.221C190.606 369.528 192.122 370.81 193.656 372.065L194.923 370.517C193.405 369.275 191.906 368.008 190.428 366.715L189.111 368.221ZM198.326 375.76C199.903 376.966 201.499 378.146 203.113 379.299L204.275 377.671C202.679 376.531 201.101 375.364 199.541 374.171L198.326 375.76ZM208.012 382.68C209.665 383.781 211.335 384.854 213.021 385.9L214.075 384.2C212.407 383.166 210.756 382.104 209.121 381.015L208.012 382.68ZM218.13 388.954C219.85 389.945 221.586 390.907 223.337 391.841L224.278 390.076C222.546 389.153 220.83 388.201 219.129 387.221L218.13 388.954ZM228.635 394.557C230.415 395.434 232.21 396.281 234.018 397.099L234.842 395.277C233.054 394.468 231.279 393.63 229.518 392.763L228.635 394.557ZM239.481 399.465C241.314 400.224 243.16 400.953 245.018 401.652L245.722 399.78C243.885 399.089 242.059 398.368 240.246 397.617L239.481 399.465ZM250.623 403.658C252.502 404.295 254.392 404.903 256.292 405.48L256.873 403.566C254.994 402.996 253.124 402.395 251.266 401.764L250.623 403.658ZM262.015 407.116C263.931 407.63 265.856 408.112 267.789 408.564L268.244 406.616C266.332 406.17 264.428 405.692 262.534 405.184L262.015 407.116ZM273.61 409.823C275.554 410.211 277.506 410.567 279.466 410.891L279.792 408.918C277.854 408.597 275.924 408.245 274 407.862L273.61 409.823ZM285.354 411.766C287.32 412.025 289.292 412.253 291.27 412.448L291.466 410.457C289.51 410.264 287.56 410.04 285.615 409.783L285.354 411.766ZM297.203 412.934C299.18 413.064 301.162 413.161 303.148 413.225L303.213 411.226C301.249 411.162 299.289 411.066 297.334 410.938L297.203 412.934ZM309.103 413.32C311.084 413.319 313.069 413.285 315.056 413.219L314.989 411.22C313.024 411.286 311.061 411.319 309.102 411.32L309.103 413.32ZM320.999 412.921C322.976 412.79 324.955 412.625 326.936 412.428L326.737 410.437C324.779 410.633 322.822 410.796 320.866 410.926L320.999 412.921ZM332.848 411.739C334.81 411.478 336.771 411.184 338.733 410.856L338.404 408.884C336.464 409.207 334.524 409.498 332.584 409.756L332.848 411.739ZM344.593 409.779C346.533 409.39 348.471 408.968 350.407 408.513L349.95 406.566C348.034 407.016 346.118 407.433 344.2 407.819L344.593 409.779ZM356.177 407.057C358.089 406.541 360 405.993 361.907 405.411L361.324 403.498C359.437 404.073 357.548 404.616 355.656 405.126L356.177 407.057ZM367.564 403.587C368.506 403.266 369.446 402.938 370.385 402.601L369.71 400.718C368.781 401.051 367.851 401.376 366.92 401.693L367.564 403.587ZM370.385 402.601C371.325 402.264 372.26 401.921 373.19 401.57L372.485 399.699C371.565 400.045 370.64 400.385 369.71 400.718L370.385 402.601ZM378.718 399.385C380.561 398.623 382.385 397.832 384.189 397.016L383.365 395.194C381.58 396.001 379.776 396.783 377.953 397.537L378.718 399.385ZM389.57 394.475C391.354 393.596 393.119 392.69 394.864 391.759L393.922 389.995C392.197 390.916 390.451 391.811 388.686 392.68L389.57 394.475ZM400.074 388.868C401.797 387.874 403.499 386.855 405.179 385.811L404.124 384.112C402.462 385.145 400.779 386.153 399.075 387.135L400.074 388.868ZM410.183 382.586C411.838 381.481 413.471 380.351 415.081 379.196L413.916 377.571C412.323 378.712 410.709 379.83 409.072 380.923L410.183 382.586ZM419.86 375.65C421.437 374.439 422.991 373.205 424.522 371.947L423.252 370.402C421.738 371.646 420.201 372.867 418.642 374.064L419.86 375.65ZM429.06 368.09C430.553 366.779 432.022 365.445 433.466 364.089L432.098 362.631C430.669 363.972 429.216 365.291 427.74 366.588L429.06 368.09ZM437.739 359.944C439.143 358.537 440.522 357.108 441.875 355.659L440.414 354.294C439.075 355.727 437.711 357.14 436.323 358.531L437.739 359.944ZM445.866 351.243C447.174 349.747 448.455 348.232 449.711 346.697L448.163 345.431C446.921 346.949 445.654 348.447 444.361 349.926L445.866 351.243ZM453.406 342.027C454.612 340.45 455.792 338.855 456.944 337.241L455.317 336.078C454.177 337.674 453.01 339.253 451.817 340.812L453.406 342.027ZM460.325 332.341C461.426 330.689 462.5 329.019 463.545 327.333L461.846 326.279C460.812 327.947 459.75 329.598 458.661 331.232L460.325 332.341ZM466.6 322.223C467.591 320.503 468.553 318.768 469.487 317.017L467.722 316.076C466.799 317.807 465.847 319.524 464.867 321.225L466.6 322.223ZM472.203 311.719C473.079 309.938 473.927 308.144 474.745 306.336L472.923 305.511C472.114 307.3 471.275 309.075 470.409 310.836L472.203 311.719ZM477.111 300.872C477.87 299.039 478.599 297.193 479.298 295.336L477.426 294.631C476.735 296.469 476.014 298.294 475.263 300.108L477.111 300.872ZM481.303 289.73C481.941 287.852 482.549 285.962 483.125 284.062L481.212 283.481C480.641 285.36 480.04 287.229 479.409 289.087L481.303 289.73ZM484.761 278.338C485.275 276.423 485.758 274.498 486.21 272.564L484.262 272.109C483.815 274.022 483.338 275.926 482.83 277.82L484.761 278.338ZM487.469 266.744C487.856 264.8 488.212 262.847 488.537 260.888L486.563 260.561C486.243 262.499 485.891 264.43 485.507 266.353L487.469 266.744ZM489.412 255C489.671 253.034 489.898 251.062 490.093 249.084L488.103 248.887C487.91 250.844 487.685 252.794 487.429 254.738L489.412 255ZM490.58 243.15C490.709 241.173 490.806 239.192 490.871 237.206L488.872 237.141C488.808 239.105 488.712 241.065 488.584 243.02L490.58 243.15ZM490.966 231.25C490.965 229.269 490.931 227.285 490.864 225.298L488.866 225.365C488.931 227.33 488.965 229.292 488.966 231.252L490.966 231.25ZM490.567 219.355C490.435 217.377 490.271 215.398 490.073 213.418L488.083 213.617C488.279 215.575 488.441 217.532 488.571 219.487L490.567 219.355ZM489.384 207.505C489.123 205.544 488.829 203.582 488.502 201.621L486.529 201.95C486.853 203.89 487.144 205.83 487.402 207.769L489.384 207.505ZM487.425 195.76C487.036 193.821 486.614 191.883 486.158 189.946L484.212 190.404C484.662 192.319 485.079 194.236 485.464 196.154L487.425 195.76ZM484.703 184.177C484.187 182.264 483.639 180.354 483.057 178.446L481.144 179.03C481.719 180.916 482.262 182.806 482.772 184.698L484.703 184.177ZM481.232 172.789C480.912 171.848 480.583 170.908 480.247 169.968L478.364 170.643C478.697 171.572 479.022 172.503 479.339 173.434L481.232 172.789ZM480.247 169.968C479.91 169.029 479.566 168.094 479.216 167.164L477.344 167.869C477.691 168.789 478.031 169.714 478.364 170.643L480.247 169.968ZM477.031 161.635C476.268 159.793 475.478 157.969 474.661 156.164L472.839 156.989C473.647 158.774 474.429 160.578 475.183 162.4L477.031 161.635ZM472.12 150.784C471.241 148.999 470.336 147.234 469.405 145.49L467.64 146.431C468.561 148.157 469.457 149.902 470.326 151.667L472.12 150.784ZM466.513 140.279C465.52 138.557 464.501 136.855 463.457 135.174L461.758 136.23C462.79 137.892 463.798 139.575 464.781 141.278L466.513 140.279ZM460.232 130.171C459.127 128.516 457.996 126.883 456.842 125.272L455.216 126.437C456.358 128.03 457.476 129.645 458.569 131.281L460.232 130.171ZM453.296 120.493C452.085 118.917 450.85 117.363 449.593 115.832L448.047 117.102C449.291 118.615 450.512 120.152 451.71 121.711L453.296 120.493ZM445.736 111.293C444.424 109.801 443.09 108.332 441.735 106.887L440.276 108.256C441.617 109.685 442.936 111.137 444.233 112.613L445.736 111.293ZM437.589 102.614C436.182 101.211 434.754 99.8319 433.304 98.4784L431.939 99.94C433.372 101.279 434.785 102.642 436.177 104.03L437.589 102.614ZM428.888 94.4874C427.393 93.18 425.878 91.8984 424.343 90.643L423.077 92.1909C424.594 93.4326 426.093 94.7001 427.572 95.993L428.888 94.4874ZM419.673 86.9481C418.096 85.7417 416.5 84.562 414.887 83.4092L413.724 85.0365C415.32 86.1767 416.898 87.3435 418.458 88.5367L419.673 86.9481ZM409.987 80.0283C408.334 78.9274 406.665 77.8539 404.979 76.8082L403.924 78.5079C405.592 79.5421 407.244 80.6039 408.878 81.6928L409.987 80.0283ZM399.869 73.7536C398.149 72.763 396.413 71.8006 394.663 70.8669L393.721 72.6315C395.453 73.5551 397.17 74.5069 398.871 75.4867L399.869 73.7536ZM389.365 68.1507C387.584 67.2742 385.789 66.4267 383.981 65.6085L383.157 67.4307C384.945 68.2399 386.72 69.0782 388.481 69.9451L389.365 68.1507ZM378.518 63.2426C376.685 62.4838 374.839 61.7548 372.981 61.0558L372.277 62.9277C374.114 63.619 375.94 64.3401 377.753 65.0906L378.518 63.2426ZM367.376 59.0504C365.497 58.4125 363.608 57.805 361.707 57.2282L361.126 59.142C363.006 59.7124 364.875 60.3133 366.733 60.9442L367.376 59.0504ZM355.984 55.5923C354.068 55.0784 352.144 54.5955 350.21 54.144L349.755 56.0916C351.667 56.5382 353.571 57.0158 355.466 57.524L355.984 55.5923ZM344.39 52.8848C342.445 52.4973 340.493 52.1413 338.533 51.8171L338.207 53.7903C340.145 54.1109 342.076 54.463 343.999 54.8462L344.39 52.8848ZM332.646 50.9421C330.68 50.6828 328.707 50.4554 326.729 50.2604L326.533 52.2508C328.489 52.4436 330.44 52.6684 332.384 52.9249L332.646 50.9421ZM320.796 49.7738C318.819 49.6444 316.837 49.5473 314.851 49.4828L314.787 51.4818C316.75 51.5455 318.71 51.6416 320.665 51.7696L320.796 49.7738ZM308.896 49.3878C306.915 49.3889 304.931 49.4225 302.944 49.4892L303.011 51.488C304.976 51.4222 306.938 51.3889 308.897 51.3878L308.896 49.3878ZM297 49.7866C295.023 49.9183 293.044 50.0827 291.064 50.2804L291.262 52.2705C293.221 52.0751 295.178 51.9124 297.133 51.7822L297 49.7866ZM285.151 50.9691C283.19 51.2304 281.228 51.5244 279.267 51.8516L279.596 53.8244C281.535 53.5008 283.475 53.21 285.415 52.9516L285.151 50.9691ZM273.406 52.9286C271.467 53.3179 269.529 53.74 267.592 54.1952L268.05 56.1421C269.965 55.6919 271.882 55.2745 273.8 54.8895L273.406 52.9286ZM261.823 55.6507C259.91 56.1666 258 56.7151 256.092 57.2966L256.675 59.2097C258.562 58.6345 260.452 58.092 262.343 57.5818L261.823 55.6507ZM250.435 59.1213C249.494 59.4416 248.553 59.7702 247.614 60.1069L248.289 61.9896C249.218 61.6565 250.148 61.3315 251.079 61.0146L250.435 59.1213Z" fill="white"/>
</svg>
